<svg width="256" height="256" viewBox="0 0 256 256" fill="none" xmlns="http://www.w3.org/2000/svg">
  <rect width="256" height="256" rx="64" fill="#160E0A"/>
  <circle cx="128" cy="128" r="92" fill="url(#paint0_linear)"/>
  <path d="M82 148C82 108.235 114.235 76 154 76H174C165.163 86.2656 162.389 99.6012 165.84 116.007C169.668 134.205 161.785 153.554 145.63 162.769C131.36 170.907 113.712 171.86 98.5943 165.316L82 158V148Z" fill="#160E0A"/>
  <path d="M125 108C140.464 108 153 120.536 153 136C153 151.464 140.464 164 125 164C109.536 164 97 151.464 97 136C97 120.536 109.536 108 125 108Z" fill="#FFF7EA"/>
  <path d="M117 137C123.075 137 128 132.075 128 126C128 119.925 123.075 115 117 115C110.925 115 106 119.925 106 126C106 132.075 110.925 137 117 137Z" fill="#160E0A"/>
  <path d="M150 90C160.217 79.4996 174.823 74.1251 189 75.3749C179.191 82.4805 172.89 91.7276 170.097 103.116L150 90Z" fill="#FFD166"/>
  <path d="M162 162C180.494 162 195.73 176.151 197.455 194.2C181.555 180.421 157.369 181.177 142.364 195.92C143.537 177.332 150.985 162 162 162Z" fill="#FFD166"/>
  <path d="M158 110L174 122L156 129L158 110Z" fill="#FF8A3D"/>
  <defs>
    <linearGradient id="paint0_linear" x1="44" y1="36" x2="210" y2="228" gradientUnits="userSpaceOnUse">
      <stop stop-color="#FF9F1C"/>
      <stop offset="1" stop-color="#F25C05"/>
    </linearGradient>
  </defs>
</svg>
